<svg class="@@class" width="60" height="62" viewBox="0 0 60 62" fill="none" xmlns="http://www.w3.org/2000/svg">
<path d="M58.7498 58.957H1.25004C0.560038 58.957 0 59.5298 0 60.2355C0 60.9413 0.560038 61.5141 1.25004 61.5141H58.75C59.44 61.5141 60 60.9413 60 60.2355C59.9999 59.5298 59.4398 58.957 58.7498 58.957Z" fill="currentColor"/>
<path fill-rule="evenodd" clip-rule="evenodd" d="M3.75004 43.6143H11.25C11.94 43.6143 12.5001 44.187 12.5001 44.8927V60.2356C12.5001 60.9413 11.94 61.5142 11.25 61.5142H3.75004C3.06004 61.5142 2.5 60.9413 2.5 60.2357V44.8929C2.5 44.1871 3.06004 43.6143 3.75004 43.6143ZM5.00007 58.9571H9.99999H10.0001V46.1714H5.00007V58.9571Z" fill="currentColor"/>
<path fill-rule="evenodd" clip-rule="evenodd" d="M18.75 30.8286H26.25C26.94 30.8286 27.5001 31.4015 27.5001 32.1072V60.2358C27.5001 60.9415 26.94 61.5144 26.25 61.5144H18.75C18.06 61.5144 17.5 60.9415 17.5 60.2358V32.1072C17.5 31.4015 18.06 30.8286 18.75 30.8286ZM20 58.9572H25V33.3857H20V58.9572Z" fill="currentColor"/>
<path fill-rule="evenodd" clip-rule="evenodd" d="M33.75 35.9429H41.25C41.94 35.9429 42.5001 36.5156 42.5001 37.2215V60.2357C42.5001 60.9415 41.94 61.5143 41.25 61.5143H33.75C33.06 61.5143 32.5 60.9415 32.5 60.2357V37.2215C32.5 36.5157 33.06 35.9429 33.75 35.9429ZM35 58.9571H40V38.5H35V58.9571Z" fill="currentColor"/>
<path fill-rule="evenodd" clip-rule="evenodd" d="M48.75 20.6001H56.25C56.94 20.6001 57.5001 21.1728 57.5001 21.8787V60.2358C57.5001 60.9415 56.94 61.5144 56.25 61.5144H48.75C48.06 61.5144 47.5 60.9415 47.5 60.2358V21.8787C47.5 21.1729 48.06 20.6001 48.75 20.6001ZM50 58.9572H55V23.1572H50V58.9572Z" fill="currentColor"/>
<path fill-rule="evenodd" clip-rule="evenodd" d="M2.5 28.2715C2.5 25.451 4.7425 23.1572 7.50003 23.1572C10.2576 23.1572 12.5001 25.451 12.5001 28.2715C12.5001 31.0921 10.2576 33.3859 7.50003 33.3859C4.7425 33.3859 2.5 31.0921 2.5 28.2715ZM5.00007 28.2715C5.00007 29.6804 6.12003 30.8286 7.50003 30.8286C8.88003 30.8286 9.99999 29.6804 9.99999 28.2715C9.99999 26.8626 8.88003 25.7144 7.50003 25.7144C6.12003 25.7144 5.00007 26.8625 5.00007 28.2715Z" fill="currentColor"/>
<path fill-rule="evenodd" clip-rule="evenodd" d="M17.5 15.4859C17.5 12.6653 19.7425 10.3716 22.5 10.3716C25.2576 10.3716 27.5001 12.6653 27.5001 15.4859C27.5001 18.3065 25.2576 20.6002 22.5 20.6002C19.7425 20.6002 17.5 18.3065 17.5 15.4859ZM20.0001 15.4859C20.0001 16.8948 21.12 18.043 22.5 18.043C23.88 18.043 25 16.8949 25 15.4859C25 14.077 23.88 12.9288 22.5 12.9288C21.12 12.9288 20.0001 14.0769 20.0001 15.4859Z" fill="currentColor"/>
<path fill-rule="evenodd" clip-rule="evenodd" d="M32.5 20.6002C32.5 17.7796 34.7425 15.4858 37.5 15.4858C40.2576 15.4858 42.5001 17.7796 42.5001 20.6002C42.5001 23.4207 40.2576 25.7145 37.5 25.7145C34.7425 25.7145 32.5 23.4207 32.5 20.6002ZM35.0001 20.6002C35.0001 22.0091 36.12 23.1573 37.5 23.1573C38.88 23.1573 40 22.0091 40 20.6002C40 19.1913 38.88 18.0431 37.5 18.0431C36.12 18.0431 35.0001 19.1911 35.0001 20.6002Z" fill="currentColor"/>
<path fill-rule="evenodd" clip-rule="evenodd" d="M47.5 5.25738C47.5 2.43682 49.7425 0.143066 52.5 0.143066C55.2576 0.143066 57.5001 2.43682 57.5001 5.25738C57.5001 8.07794 55.2576 10.3717 52.5 10.3717C49.7425 10.3717 47.5 8.07794 47.5 5.25738ZM50.0001 5.25738C50.0001 6.66629 51.12 7.81448 52.5 7.81448C53.88 7.81448 55 6.66629 55 5.25738C55 3.84848 53.88 2.70028 52.5 2.70028C51.12 2.70028 50.0001 3.84836 50.0001 5.25738Z" fill="currentColor"/>
<path d="M50.7354 7.06246C50.2479 6.56382 49.4554 6.56382 48.9679 7.06246L39.268 16.9841C38.7805 17.4828 38.7805 18.2934 39.268 18.792C39.513 19.04 39.8329 19.1654 40.153 19.1654C40.4704 19.1654 40.7905 19.0427 41.0355 18.792L50.7354 8.87039C51.2229 8.37175 51.2229 7.5611 50.7354 7.06246Z" fill="currentColor"/>
<path d="M34.4765 17.6491L26.4465 15.3068C25.774 15.1074 25.0915 15.5063 24.904 16.1865C24.714 16.8667 25.099 17.5725 25.7614 17.7668L33.7915 20.1091C33.9064 20.1423 34.0215 20.1577 34.134 20.1577C34.679 20.1577 35.179 19.792 35.3365 19.2294C35.5265 18.5518 35.1416 17.8434 34.4765 17.6491Z" fill="currentColor"/>
<path d="M20.5498 17.0792C20.1199 16.5269 19.3348 16.4374 18.7948 16.8746L9.36981 24.5614C8.82981 25.0038 8.73981 25.8067 9.17235 26.359C9.41984 26.6761 9.78488 26.8398 10.1498 26.8398C10.4223 26.8398 10.6973 26.7477 10.9273 26.5636L20.3524 18.8769C20.8924 18.4344 20.9824 17.6316 20.5498 17.0792Z" fill="currentColor"/>
</svg>
