<svg class="@@class" width="41" height="40" viewBox="0 0 41 40" fill="none" xmlns="http://www.w3.org/2000/svg">
<g clip-path="url(#clip02)">
<path d="M39.4688 28.8281L29.8594 19.2188L33.7656 15.3125L39.0781 10C40.5625 8.51562 40.5625 6.17188 39.0781 4.6875L35.5625 1.17188C34.8594 0.390625 33.9219 0 32.9062 0C31.9688 0 31.0312 0.390625 30.25 1.17188L24.9375 6.48438L21.0312 10.3906L11.4219 0.78125C10.9531 0.3125 10.3281 0 9.70312 0C9.07812 0 8.45312 0.3125 7.98438 0.78125L0.953125 7.73438C-0.0625 8.75 -0.0625 10.3125 0.953125 11.25L10.5625 20.8594L1.73438 29.6875L0.25 38.125C0.015625 39.2969 1.10938 40.2344 2.125 40L10.5625 38.5156L19.3906 29.6875L29 39.2969C29.3906 39.7656 30.0156 40 30.7188 40C31.3438 40 31.9688 39.7656 32.4375 39.2969L39.4688 32.2656C40.4844 31.3281 40.4844 29.7656 39.4688 28.8281ZM32.0469 2.89062C32.3594 2.57812 33.4531 2.57812 33.8438 2.89062L37.3594 6.40625C37.8281 6.95312 37.8281 7.73438 37.3594 8.20312L33.7656 11.7969L28.4531 6.48438L32.0469 2.89062ZM2.67188 9.53125L9.70312 2.57812L14.0781 6.875L11.0312 10C10.7969 10.2344 10.7969 10.625 11.0312 10.8594L11.8906 11.7188C12.125 11.9531 12.5156 11.9531 12.75 11.7188L15.875 8.67188L19.3125 12.1094L12.2812 19.1406L2.67188 9.53125ZM9.3125 36.25L2.90625 37.3438L4 30.9375L26.6562 8.28125L31.9688 13.5938L9.3125 36.25ZM30.7188 37.5781L21.1094 27.9688L28.1406 20.9375L31.5781 24.375L28.5312 27.5C28.2969 27.7344 28.2969 28.125 28.5312 28.3594L29.3906 29.2188C29.625 29.4531 30.0156 29.4531 30.25 29.2188L33.375 26.1719L37.75 30.5469L30.7188 37.5781Z" fill="#0DA574"/>
</g>
<defs>
<clipPath id="clip02">
<rect width="40" height="40" fill="white" transform="translate(0.25)"/>
</clipPath>
</defs>
</svg>
