<svg class="@@class" width="41" height="40" viewBox="0 0 41 40" fill="none" xmlns="http://www.w3.org/2000/svg">
<g clip-path="url(#clip04)">
<path d="M37.75 27.5V25C37.75 17.1094 32.4375 10.4688 25.25 8.35938V7.5C25.25 6.17188 24.0781 5 22.75 5H17.75C16.3438 5 15.25 6.17188 15.25 7.5V8.35938C7.98438 10.4688 2.75 17.1094 2.75 25V27.5C1.34375 27.5 0.25 28.6719 0.25 30V32.5C0.25 33.9062 1.34375 35 2.75 35H37.75C39.0781 35 40.25 33.9062 40.25 32.5V30C40.25 28.6719 39.0781 27.5 37.75 27.5ZM5.25 25C5.25 18.9062 9 13.6719 14.3125 11.4062L16.3438 19.5312C16.4219 19.8438 16.6562 20 17.0469 20C17.3594 20 17.6719 19.6875 17.75 19.2969V7.5H22.75V19.2969C22.75 19.6875 23.0625 20 23.375 20C23.7656 20 24 19.8438 24.0781 19.5312L26.1094 11.4062C31.4219 13.6719 35.25 18.9062 35.25 25V27.5H5.25V25ZM37.75 32.5H2.75V30H37.75V32.5Z" fill="#0DA574"/>
</g>
<defs>
<clipPath id="clip04">
<rect width="40" height="40" fill="white" transform="translate(0.25)"/>
</clipPath>
</defs>
</svg>
