<svg class="@@class" width="60" height="62" viewBox="0 0 60 62" fill="none" xmlns="http://www.w3.org/2000/svg">
<path fill-rule="evenodd" clip-rule="evenodd" d="M26.25 61.5144H33.75C35.75 61.5144 37.5 59.7244 37.5 57.6787V51.7973C37.5 49.2401 38.75 46.4273 41 44.6373C45.25 41.313 47.5 36.1987 47.5 30.8287C47.5 25.9701 45.5 21.3673 42.25 18.043C39 14.7187 34.5 12.9287 29.75 12.9287C20.5 13.1844 12.75 20.8559 12.5 30.573C12.5 36.1987 14.75 41.313 19.25 44.893C21.25 46.683 22.5 48.9844 22.5 51.5416V56.9116C22.5 59.9801 24.5 61.5144 26.25 61.5144ZM15 30.573C15.25 22.3901 22 15.4859 30 15.4859C34 15.4859 37.75 17.0201 40.5 19.833C43.5 22.9016 45 26.7373 45 30.8287C45 35.4316 43 39.7787 39.5 42.5916C36.75 44.893 35 48.473 35 51.7973V57.6787C35 58.4459 34.5 58.9573 33.75 58.9573H26.25C25 58.9573 25 57.423 25 56.9116V51.5416C25 48.2173 23.5 45.1487 20.75 42.8473C17 40.0344 15 35.4316 15 30.573Z" fill="currentColor"/>
<path d="M36.25 53.8433H23.75C23 53.8433 22.5 53.3318 22.5 52.5647C22.5 51.7976 23 51.2861 23.75 51.2861H36.25C37 51.2861 37.5 51.7976 37.5 52.5647C37.5 53.3318 37 53.8433 36.25 53.8433Z" fill="currentColor"/>
<path d="M30 7.81449C29.25 7.81449 28.75 7.30307 28.75 6.53592V1.42164C28.75 0.654495 29.25 0.143066 30 0.143066C30.75 0.143066 31.25 0.654495 31.25 1.42164V6.53592C31.25 7.30307 30.75 7.81449 30 7.81449Z" fill="currentColor"/>
<path d="M46.75 14.9746C46.5 14.9746 46 14.9746 45.75 14.7189C45.25 14.2075 45.25 13.4403 45.75 12.9289L49.25 9.3489C49.75 8.83747 50.5 8.83747 51 9.3489C51.5 9.86033 51.5 10.6275 51 11.1389L47.5 14.7189C47.5 14.7189 47 14.9746 46.75 14.9746V14.9746Z" fill="currentColor"/>
<path d="M58.75 32.1074H53.75C53 32.1074 52.5 31.596 52.5 30.8289C52.5 30.0617 53 29.5503 53.75 29.5503H58.75C59.5 29.5503 60 30.0617 60 30.8289C60 31.596 59.5 32.1074 58.75 32.1074Z" fill="currentColor"/>
<path d="M50.25 52.8203C50 52.8203 49.5 52.8203 49.25 52.5646L45.75 48.9846C45.25 48.4732 45.25 47.706 45.75 47.1946C46.25 46.6832 47 46.6832 47.5 47.1946L51 50.7746C51.5 51.286 51.5 52.0532 51 52.5646C51 52.8203 50.75 52.8203 50.25 52.8203Z" fill="currentColor"/>
<path d="M9.75 52.8203C9.5 52.8203 9 52.8203 8.75 52.5646C8.25 52.0532 8.25 51.286 8.75 50.7746L12.25 47.1946C12.75 46.6832 13.5 46.6832 14 47.1946C14.5 47.706 14.5 48.4732 14 48.9846L10.5 52.5646C10.25 52.8203 10 52.8203 9.75 52.8203V52.8203Z" fill="currentColor"/>
<path d="M6.25 32.1074H1.25C0.5 32.1074 0 31.596 0 30.8289C0 30.0617 0.5 29.5503 1.25 29.5503H6.25C7 29.5503 7.5 30.0617 7.5 30.8289C7.5 31.596 7 32.1074 6.25 32.1074Z" fill="currentColor"/>
<path d="M13.25 14.9745C13 14.9745 12.5 14.9745 12.25 14.7188L8.75 10.883C8.25 10.3716 8.25 9.60447 8.75 9.09304C9.25 8.58162 10 8.58162 10.5 9.09304L14 12.673C14.5 13.1845 14.5 13.9516 14 14.463C13.75 14.7188 13.5 14.9745 13.25 14.9745V14.9745Z" fill="currentColor"/>
<path d="M40 32.1075C39.25 32.1075 38.75 31.5961 38.75 30.8289C38.75 25.9703 34.75 21.8789 30 21.8789C29.25 21.8789 28.75 21.3675 28.75 20.6003C28.75 19.8332 29.25 19.3218 30 19.3218C36.25 19.3218 41.25 24.4361 41.25 30.8289C41.25 31.5961 40.75 32.1075 40 32.1075Z" fill="currentColor"/>
</svg>
