<svg class="@@class" width="60" height="62" viewBox="0 0 60 62" fill="none" xmlns="http://www.w3.org/2000/svg">
<path fill-rule="evenodd" clip-rule="evenodd" d="M59.391 29.7654C59.7584 29.9203 59.9994 30.2951 59.9995 30.7118C59.9994 31.1285 59.7584 31.5032 59.391 31.6581L41.0732 39.3729L59.391 47.0877C59.7588 47.2423 60 47.6171 60 48.0341C60 48.451 59.7588 48.8259 59.391 48.9804L30.3593 61.2079C30.1286 61.3047 29.8714 61.3047 29.6407 61.2079L0.608983 48.9804C0.241228 48.8259 0 48.451 0 48.0341C0 47.6171 0.241228 47.2423 0.608983 47.0877L18.9268 39.3729L0.608983 31.6581C0.241228 31.5036 0 31.1287 0 30.7118C0 30.2949 0.241228 29.92 0.608983 29.7654L18.9268 22.0506L0.608983 14.3359C0.241228 14.1813 0 13.8064 0 13.3895C0 12.9726 0.241228 12.5977 0.608983 12.4432L29.6407 0.215664C29.8714 0.118867 30.1286 0.118867 30.3593 0.215664L59.391 12.4432C59.7588 12.5977 60 12.9726 60 13.3895C60 13.8064 59.7588 14.1813 59.391 14.3359L41.0732 22.0506L59.391 29.7654ZM30 2.25995L3.57386 13.3895L30 24.5191L56.4262 13.3895L30 2.25995ZM56.4262 48.0341L30 59.1636L3.57386 48.0341L21.5324 40.4709L29.6407 43.8856C29.8714 43.9824 30.1286 43.9824 30.3593 43.8856L38.4676 40.4709L56.4262 48.0341ZM3.57386 30.7118L30 41.8414L56.4262 30.7118L38.4676 23.1486L30.3593 26.5634C30.1286 26.6602 29.8714 26.6602 29.6407 26.5634L21.5324 23.1486L3.57386 30.7118Z" fill="currentColor"/>
</svg>
