<svg  class="@@class" width="60" height="62" viewBox="0 0 60 62" fill="none" xmlns="http://www.w3.org/2000/svg">
<path fill-rule="evenodd" clip-rule="evenodd" d="M53.2974 33.0918L58.9607 37.4956C60.0184 38.3305 60.306 39.7985 59.6512 40.9931L53.7311 51.177C53.0894 52.3462 51.626 52.867 50.3501 52.3743L43.6496 49.6988C42.312 50.6485 40.99 51.4119 39.6447 52.017L38.6255 59.0887C38.4613 60.4035 37.2906 61.4145 35.9068 61.4145H24.0976C22.7139 61.4145 21.5433 60.4035 21.3764 59.0632L20.3597 52.017C18.9709 51.3941 17.6256 50.618 16.3471 49.7014L9.66458 52.3693C8.33988 52.8466 6.89714 52.3156 6.25789 51.1515L0.368612 41.0187C-0.301436 39.7958 -0.0138256 38.3279 1.03625 37.5009L6.70471 33.0919C6.62 32.2289 6.57631 31.481 6.57631 30.7789C6.57631 30.0768 6.61987 29.3288 6.70977 28.4659L1.04648 24.0645C-0.0317561 23.217 -0.316719 21.7005 0.378962 20.5312L6.27594 10.3832C6.91771 9.21398 8.37599 8.68803 9.657 9.18586L16.3575 11.8613C17.6951 10.9116 19.0171 10.1483 20.3624 9.5432L21.3815 2.46887C21.5458 1.15404 22.7164 0.143066 24.1002 0.143066H35.9095C37.2933 0.143066 38.4639 1.15404 38.6307 2.49448L39.6473 9.5432C41.0363 10.1636 42.3789 10.9396 43.6574 11.8587L50.34 9.19089C51.657 8.70837 53.1022 9.24199 53.7466 10.4087L59.6359 20.5414C60.3085 21.7642 60.0185 23.2322 58.9659 24.0594L53.2974 28.4658C53.3693 29.1449 53.4309 29.9388 53.4309 30.7788C53.4309 31.6187 53.3719 32.4126 53.2974 33.0918ZM51.2923 50L57.4075 39.7422C57.4486 39.6708 57.4358 39.5559 57.3692 39.5023L51.1462 34.6618C50.792 34.3861 50.6071 33.9419 50.6636 33.4977C50.7611 32.7216 50.8613 31.7922 50.8613 30.7788C50.8613 29.7678 50.7611 28.8359 50.6636 28.0598C50.6071 27.6131 50.792 27.1714 51.1462 26.8957L57.3769 22.0527C57.4385 22.0043 57.4488 21.8919 57.3948 21.7923L51.5056 11.6596L43.945 14.4959C43.5214 14.667 43.0464 14.6006 42.6845 14.3249C41.2057 13.1939 39.6269 12.2825 37.9889 11.6161C37.5679 11.445 37.2702 11.0647 37.2034 10.6153L36.0841 2.83385L24.1002 2.69599L22.8012 10.6153C22.7369 11.0622 22.4392 11.4425 22.0181 11.6161C20.4418 12.257 18.9015 13.1454 17.3124 14.3325C16.9504 14.6006 16.4806 14.6644 16.0622 14.4959L8.71222 11.56L2.59706 21.8178L8.85831 26.8956C9.21259 27.1713 9.39743 27.613 9.34099 28.0597C9.20741 29.132 9.14327 29.9949 9.14327 30.7786C9.14327 31.5624 9.20488 32.4278 9.34099 33.4976C9.39743 33.9418 9.21259 34.386 8.85831 34.6617L2.62762 39.5047C2.56601 39.5531 2.55578 39.668 2.60969 39.7676L8.49897 49.9003L16.0595 47.064C16.2161 47.0002 16.3778 46.9721 16.5396 46.9721C16.8168 46.9721 17.0941 47.0615 17.3226 47.2377C18.7988 48.3661 20.3777 49.2776 22.0181 49.9464C22.4392 50.1175 22.7369 50.4978 22.8037 50.9472L23.9256 58.7262L35.907 58.8615L37.2034 50.9447C37.2675 50.4953 37.5679 50.1149 37.9889 49.9439C39.5653 49.3031 41.103 48.4121 42.6947 47.2275C43.0541 46.9621 43.5265 46.8982 43.9424 47.0641L51.2923 50Z" fill="currentColor"/>
<path fill-rule="evenodd" clip-rule="evenodd" d="M17.166 30.7786C17.166 23.74 22.9244 18.0137 30.0022 18.0137C37.0801 18.0137 42.8385 23.74 42.8385 30.7786C42.8385 37.8171 37.0801 43.5435 30.0022 43.5435C22.9244 43.5435 17.166 37.8171 17.166 30.7786ZM19.7333 30.7786C19.7333 36.4104 24.3389 40.9904 30.0022 40.9904C35.6655 40.9904 40.2711 36.4104 40.2711 30.7786C40.2711 25.1468 35.6655 20.5667 30.0022 20.5667C24.3389 20.5667 19.7333 25.1468 19.7333 30.7786Z" fill="currentColor"/>
</svg>
