<svg class="@@class" width="60" height="62" viewBox="0 0 60 62" fill="none" xmlns="http://www.w3.org/2000/svg">
<path d="M13 55.8886C12.5 55.3772 12.5 54.61 13 54.0986C14 53.0757 14.5 52.0529 14.5 50.7743C14.5 49.4957 14 48.2172 13 47.45C12.5 46.9386 12.5 46.1715 13 45.66L18 39.0115C18.5 38.2443 18.75 37.2215 18.25 36.1986C18.25 35.9429 18.25 35.9429 18 35.9429C18 35.9429 17.75 35.9429 17.5 36.1986L8.25 45.4043C7.75 45.9157 7 45.9157 6.5 45.4043C6 44.8929 6 44.1257 6.5 43.6143L15.75 34.4086C16.5 33.6415 17.5 33.3857 18.5 33.3857C19.5 33.6415 20.25 34.1529 20.75 34.92C21.75 36.71 21.5 38.7557 20.25 40.29L15.75 46.1715C16.75 47.45 17.25 48.9843 17.25 50.5186C17.25 52.5643 16.5 54.3543 15 55.8886C14.75 56.4 14.5 56.4 14 56.4C13.75 56.4 13.25 56.1443 13 55.8886Z" fill="currentColor"/>
<path d="M1.25 61.5143C0.5 61.5143 0 61.0028 0 60.2357V47.7057C0 43.3585 1.75 39.2671 4.75 35.9428L9.5 31.0843C10 30.5728 10.75 30.5728 11.25 31.0843C11.75 31.5957 11.75 32.3628 11.25 32.8743L6.5 37.7328C4 40.29 2.5 43.87 2.5 47.7057V58.9571H20V56.6557C20 56.1443 20.25 55.8885 20.5 55.6328C22.5 54.3543 23.5 52.3085 23.75 50.0071C23.75 49.24 24.25 48.7285 25 48.7285C25.75 48.7285 26.25 49.24 26.25 50.0071C26.25 52.82 24.75 55.6328 22.5 57.4228V60.2357C22.5 61.0028 22 61.5143 21.25 61.5143H1.25Z" fill="currentColor"/>
<path d="M41.4999 28.2717C40.4999 28.016 39.7499 27.5045 39.2499 26.7374C38.2499 24.9474 38.4999 22.9017 39.7499 21.3674L44.2499 15.486C43.2499 14.2074 42.7499 12.6731 42.7499 11.1388C42.7499 9.09311 43.4999 7.30311 44.9999 5.76883C45.4999 5.2574 46.2499 5.2574 46.7499 5.76883C47.2499 6.28025 47.2499 7.0474 46.7499 7.55883C45.7499 8.58168 45.2499 9.60454 45.2499 10.8831C45.2499 12.1617 45.7499 13.4403 46.7499 14.2074C47.2499 14.7188 47.2499 15.486 46.7499 15.9974L41.7499 22.646C41.2499 23.4131 40.9999 24.436 41.4999 25.4588C41.4999 25.7145 41.7499 25.7145 41.9999 25.7145C41.9999 25.7145 42.2499 25.7145 42.4999 25.4588L51.7499 16.2531C52.2499 15.7417 52.9999 15.7417 53.4999 16.2531C53.9999 16.7645 53.9999 17.5317 53.4999 18.0431L44.2499 27.2488C43.4999 28.016 42.7499 28.2717 41.9999 28.2717C41.7499 28.2717 41.7499 28.2717 41.4999 28.2717Z" fill="currentColor"/>
<path d="M49 30.5731C48.5 30.0616 48.5 29.2945 49 28.7831L53.75 23.9245C56.25 21.3674 57.75 17.7874 57.75 13.9516V2.70021H40.25V5.00164C40.25 5.51307 40 5.76878 39.75 6.02449C37.75 7.30307 36.75 9.34878 36.5 11.6502C36.25 12.4174 35.75 12.9288 35 12.9288C34.25 12.9288 33.75 12.4174 33.75 11.6502C33.75 8.83735 35.25 6.02449 37.5 4.23449V1.42164C37.5 0.654495 38 0.143066 38.75 0.143066H58.75C59.5 0.143066 60 0.654495 60 1.42164V13.9516C60 18.2988 58.25 22.3902 55.25 25.7145L50.5 30.5731C50.5 30.5731 50 30.8288 49.75 30.8288C49.5 30.8288 49 30.8288 49 30.5731Z" fill="currentColor"/>
<path d="M11.25 41.8244C10.5 41.8244 10 41.313 10 40.5459V11.6502C10 10.883 10.5 10.3716 11.25 10.3716H44C44.75 10.3716 45.25 10.883 45.25 11.6502C45.25 12.4173 44.75 12.9287 44 12.9287H12.5V40.5459C12.5 41.313 12 41.8244 11.25 41.8244Z" fill="currentColor"/>
<path d="M48.75 51.2859H16.25C16 51.2859 15.75 51.2859 15.5 51.2859C14.75 51.0301 14.5 50.5187 14.5 49.7516C14.5 48.9844 15.25 48.7287 16 48.7287H47.5V21.1116C47.5 20.3444 48 19.833 48.75 19.833C49.5 19.833 50 20.3444 50 21.1116V50.0073C50 50.7744 49.5 51.2859 48.75 51.2859Z" fill="currentColor"/>
</svg>
