<svg class="@@class" width="40" height="40" viewBox="0 0 40 40" fill="none" xmlns="http://www.w3.org/2000/svg">
<g clip-path="url(#clip01)">
<path d="M36.4062 6.5625L21.4062 0.3125C20.9375 0.15625 20.4688 0.078125 20 0.078125C19.4531 0.078125 18.9844 0.15625 18.5156 0.3125L3.51562 6.5625C2.10938 7.1875 1.25 8.51562 1.25 10C1.25 25.5469 10.1562 36.25 18.5156 39.7656C19.4531 40.1562 20.4688 40.1562 21.4062 39.7656C28.125 36.9531 38.75 27.3438 38.75 10C38.75 8.51562 37.8125 7.1875 36.4062 6.5625ZM20.4688 37.4219C20.1562 37.5781 19.7656 37.5781 19.4531 37.4219C11.875 34.375 3.75 23.75 3.75 10C3.75 9.53125 3.98438 9.0625 4.45312 8.90625L19.4531 2.65625C19.7656 2.5 20.1562 2.5 20.4688 2.65625L35.4688 8.90625C35.9375 9.0625 36.25 9.53125 36.1719 10C36.25 23.75 28.125 34.375 20.4688 37.4219ZM31.0938 12.0312C30.7031 11.7188 30.1562 11.7188 29.7656 12.0312L17.0312 24.6875L11.6406 19.2969C11.25 18.9062 10.625 18.9062 10.3125 19.2969L9.60938 19.9219C9.21875 20.3125 9.21875 20.8594 9.60938 21.25L16.3281 28.0469C16.7188 28.3594 17.2656 28.3594 17.6562 28.0469L31.7188 14.0625C32.1094 13.6719 32.1094 13.125 31.7188 12.7344L31.0938 12.0312Z" fill="#0DA574"/>
</g>
<defs>
<clipPath id="clip01">
<rect width="40" height="40" fill="white"/>
</clipPath>
</defs>
</svg>
